:SAMPLES-PER-SECOND 30
:FULLY-SPECIFIED
:DEGREES
355
root  60.8729 38.7295 -1.8694 -168.895 -47.0436 -179.133
RightUpLeg  -17.9414 -25.3721 -17.1118
RightLeg  11.9387 -41.0731 -0.894371
RightFoot  5.55409 -0.721067 5.0062
RightToes  0.00048216 0.542163 -0.142577
Spine  37.8061 -5.08598 5.50712
Spine1  7.35017 -4.20449 3.05137
HEad  -33.1865 32.9795 -31.6304
LeftShoulder1  9.31842 -16.6076 -40.0698
LeftArm  -8.66581 -1.96978 -30.1224
LeftForeArm  45.4284 -76.9007 -52.196
LeftHand  -0.25398 0.0180481 5.50724
RightShoulder  4.46769 9.53222 28.2691
RightArm  -19.3327 -31.4266 23.025
RightForeArm  84.2067 74.9088 128.519
RightHand  -0.0922337 -8.9639 0.83602
LeftUpLeg  -42.5701 47.5215 -27.3324
LeftLeg  21.6373 14.265 6.51539
LeftFoot  -12.5395 0.148298 7.11637
LeftToes  1.06246e-005 4.65855e-005 -8.18505e-006
356
root  59.8973 38.8546 -1.70518 -172.152 -50.8948 -178.819
RightUpLeg  -16.493 -22.4273 -16.984
RightLeg  14.3744 -23.5071 -3.54451
RightFoot  0.376443 -0.199126 1.92921
RightToes  0.00048216 0.542163 -0.142577
Spine  35.3933 -4.87143 5.73384
Spine1  7.58278 -4.45123 4.52957
HEad  -31.0012 33.7022 -31.5663
LeftShoulder1  9.23199 -16.2603 -40.4276
LeftArm  -8.21672 0.240101 -30.9213
LeftForeArm  45.0257 -76.8363 -51.8888
LeftHand  -0.25398 0.0180481 5.50724
RightShoulder  4.36018 9.25863 28.1634
RightArm  -18.5635 -33.4745 22.8206
RightForeArm  87.087 74.5572 130.364
RightHand  -0.132713 -9.6547 1.6418
LeftUpLeg  -34.4475 46.2053 -22.4741
LeftLeg  20.6966 13.8428 5.89707
LeftFoot  -14.139 0.250696 6.7874
LeftToes  1.06246e-005 4.65855e-005 -8.18505e-006
357
root  58.9606 39.0166 -1.59637 -175.281 -54.689 -178.745
RightUpLeg  -15.0999 -14.7181 -17.0112
RightLeg  17.492 -8.00441 -3.05638
RightFoot  -3.46236 -0.0220268 0.114486
RightToes  0.00048216 0.542163 -0.142577
Spine  33.6494 -4.47709 5.72022
Spine1  7.29084 -4.36695 5.55114
HEad  -27.9112 33.6564 -30.2939
LeftShoulder1  9.26322 -16.1033 -40.9313
LeftArm  -7.73722 1.80152 -31.3394
LeftForeArm  44.1559 -76.6571 -50.8215
LeftHand  -0.25398 0.0180481 5.50724
RightShoulder  4.38398 8.92751 29.2902
RightArm  -18.1895 -34.3605 21.9956
RightForeArm  85.6634 74.9214 128.677
RightHand  -0.151657 -9.91629 1.9654
LeftUpLeg  -24.8072 41.6486 -16.0984
LeftLeg  19.1166 16.3774 4.65506
LeftFoot  -14.654 0.26347 6.0446
LeftToes  1.06246e-005 4.65855e-005 -8.18505e-006
358
root  58.0189 39.1413 -1.52126 -177.675 -58.4109 -178.769
RightUpLeg  -15.1368 -6.5529 -16.7117
RightLeg  22.4098 0.358052 -0.0891438
RightFoot  -4.23839 -0.154086 1.95558
RightToes  0.00048216 0.542163 -0.142577
Spine  31.686 -4.05856 5.3987
Spine1  6.67665 -4.26811 6.27626
HEad  -24.1827 33.3009 -28.259
LeftShoulder1  9.22658 -15.907 -41.2037
LeftArm  -7.35189 3.35091 -31.3074
LeftForeArm  45.2835 -76.8259 -51.6783
LeftHand  -0.25398 0.0180481 5.50724
RightShoulder  4.49588 8.79673 30.5943
RightArm  -17.5002 -34.5874 20.9973
RightForeArm  80.9817 75.5872 124.917
RightHand  -0.133249 -10.0183 1.46231
LeftUpLeg  -16.097 31.525 -9.90641
LeftLeg  17.6493 23.6013 2.67389
LeftFoot  -14.9048 0.261061 5.5107
LeftToes  1.06246e-005 4.65855e-005 -8.18505e-006
359
root  57.0392 39.2295 -1.44585 -179.357 -62.3452 -178.664
RightUpLeg  -16.5393 -2.9043 -14.8088
RightLeg  27.429 2.73899 1.25705
RightFoot  -3.79999 -0.341845 4.81775
RightToes  0.00048216 0.542163 -0.142577
Spine  29.0054 -3.73253 4.67821
Spine1  6.28752 -4.5192 7.31872
HEad  -20.4212 32.6423 -26.1502
LeftShoulder1  9.02131 -15.5639 -40.9973
LeftArm  -7.44791 4.71783 -31.386
LeftForeArm  47.982 -77.2659 -54.3151
LeftHand  -0.25398 0.0180481 5.50724
RightShoulder  4.59588 8.90532 31.0883
RightArm  -16.2703 -34.5406 20.3423
RightForeArm  76.3059 76.1639 121.026
RightHand  -0.127585 -10.2316 1.22685
LeftUpLeg  -10.4933 20.5543 -7.02661
LeftLeg  15.8505 30.9229 0.711292
LeftFoot  -15.3829 0.258751 4.71425
LeftToes  1.06246e-005 4.65855e-005 -8.18505e-006
360
root  56.0177 39.3133 -1.35788 178.793 -66.7502 -177.963
RightUpLeg  -18.0714 -0.313647 -12.0009
RightLeg  31.052 -0.497126 -0.568102
RightFoot  -4.36993 -0.314417 4.61659
RightToes  0.00048216 0.542163 -0.142577
Spine  26.162 -3.66879 3.87216
Spine1  6.18815 -5.15488 8.7098
HEad  -16.9714 31.5409 -24.0829
LeftShoulder1  8.76571 -15.1791 -40.6296
LeftArm  -8.0294 5.61437 -31.4678
LeftForeArm  50.8852 -77.7146 -57.5528
LeftHand  -0.25398 0.0180481 5.50724
RightShoulder  4.59817 8.91359 31.0815
RightArm  -14.7032 -34.1724 20.0461
RightForeArm  73.8419 76.545 118.224
RightHand  -0.180591 -10.7647 2.11385
LeftUpLeg  -6.17433 12.5367 -6.26004
LeftLeg  13.2716 34.823 -1.16517
LeftFoot  -15.7259 0.234819 3.6609
LeftToes  1.06246e-005 4.65855e-005 -8.18505e-006
361
root  54.9823 39.3552 -1.27452 176.317 -71.4848 -176.646
RightUpLeg  -19.4519 0.972163 -8.74146
RightLeg  32.6684 -3.77783 -2.83336
RightFoot  -4.94036 -0.143479 2.00972
RightToes  0.00048216 0.542163 -0.142577
Spine  23.8387 -3.81653 2.98857
Spine1  6.08124 -5.89663 9.84405
HEad  -13.896 30.0432 -21.7813
LeftShoulder1  8.55702 -14.7748 -40.5336
LeftArm  -8.51798 5.71293 -30.832
LeftForeArm  52.1459 -77.9307 -59.5555
LeftHand  -0.25398 0.0180481 5.50724
RightShoulder  4.48911 8.60457 31.1269
RightArm  -13.3104 -33.5201 20.3204
RightForeArm  72.9546 76.7217 116.866
RightHand  -0.233657 -11.3986 2.82539
LeftUpLeg  -2.06915 7.99799 -6.39248
LeftLeg  10.6746 34.8307 -2.7189
LeftFoot  -16.0002 0.221696 3.08337
LeftToes  1.06246e-005 4.65855e-005 -8.18505e-006
